<svg xmlns="http://www.w3.org/2000/svg" version="1.1" viewBox="46.61 81.47 627.39 498.84">
<path d="M0 0 C0.96968247 -0.00644889 1.93936495 -0.01289778 2.93843174 -0.0195421 C4.01135943 -0.01644489 5.08428713 -0.01334769 6.18972778 -0.01015663 C7.32369208 -0.01468774 8.45765638 -0.01921886 9.62598324 -0.02388728 C13.4521223 -0.03661745 17.27812058 -0.03490534 21.10427856 -0.03325844 C23.83708742 -0.03814842 26.5698862 -0.04598571 29.3026886 -0.05361366 C35.9726931 -0.07025347 42.64266227 -0.07572465 49.31268579 -0.07683842 C54.73637573 -0.077788 60.16005399 -0.08189383 65.58374023 -0.08823967 C80.96044366 -0.10586444 96.33711914 -0.11507725 111.71383274 -0.11357872 C112.54344646 -0.11349881 113.37306019 -0.1134189 114.22781372 -0.11333656 C115.05844113 -0.1132548 115.88906855 -0.11317304 116.74486649 -0.1130888 C130.19164021 -0.11227676 143.63830168 -0.13139039 157.08504295 -0.1596133 C170.89165407 -0.18836259 184.6982105 -0.20215229 198.50485229 -0.20042574 C206.25620253 -0.19976228 214.00743528 -0.20523451 221.75875854 -0.22678185 C228.36254962 -0.24502116 234.96617004 -0.24931895 241.56997544 -0.235763 C244.93741509 -0.2292454 248.30426131 -0.23125671 251.67171288 -0.2464695 C255.32929468 -0.26192052 258.98602162 -0.2526131 262.64358521 -0.23720741 C263.69866713 -0.24749454 264.75374905 -0.25778167 265.84080315 -0.26838052 C276.1376407 -0.17277037 284.88390026 3.15109336 292.42459106 10.25726891 C295.08290206 13.26682193 297.45270504 16.43886025 299.79959106 19.69476891 C300.44879517 20.57930748 301.09799927 21.46384605 301.76687622 22.37518883 C307.21849383 29.85275454 312.47625691 37.43759875 317.42459106 45.25726891 C317.78681763 45.82622887 318.14904419 46.39518883 318.52224731 46.98139 C336.75000758 75.83384386 350.71917829 107.40819823 360.48709106 140.06976891 C360.69116577 140.75079674 360.89524048 141.43182457 361.10549927 142.13348961 C362.02857235 145.35946154 362.42459106 147.85799865 362.42459106 151.25726891 C363.03117554 151.09122154 363.63776001 150.92517418 364.26272583 150.75409508 C415.44296933 136.91627814 471.5784929 138.2480744 519.42459106 163.25726891 C517.68657076 166.96742417 515.54328016 169.37045098 512.67459106 172.31976891 C497.6488541 188.33361003 486.50617725 206.99478905 476.7571106 226.56220055 C476.4088258 227.26002018 476.060541 227.95783981 475.70170212 228.6768055 C472.56921571 234.95726584 469.4522533 241.2454072 466.33724976 247.53455162 C463.66666833 252.92530617 460.98762698 258.31185006 458.30783463 263.69803047 C456.29135973 267.75180161 454.27792033 271.80702248 452.27127075 275.86566734 C434.778251 311.23557458 434.778251 311.23557458 424.42459106 327.25726891 C423.77232544 328.27385582 423.12005981 329.29044273 422.44802856 330.33783531 C420.93148545 332.64907159 419.38286711 334.92892732 417.79959106 337.19476891 C416.99159058 338.36193443 416.99159058 338.36193443 416.16726685 339.55267906 C402.82758866 358.68328654 387.57839055 376.29137931 371.09597778 392.77118492 C369.55285576 394.31649957 368.01794801 395.86967337 366.48318481 397.42328453 C360.12232159 403.81996822 353.50368199 409.64979405 346.42459106 415.25726891 C345.25053552 416.23356471 344.0794406 417.21344506 342.91287231 418.19867516 C326.75169442 431.63193078 308.78611816 443.07310902 290.42459106 453.25726891 C289.66775024 453.68282066 288.91090942 454.10837242 288.13113403 454.54681969 C252.50749011 474.44412274 213.13202353 487.26254005 172.98709106 494.06976891 C171.26788452 494.36210411 171.26788452 494.36210411 169.51394653 494.66034508 C150.32702145 497.73182335 131.2754331 498.63580609 111.86209106 498.56976891 C110.71817902 498.56761375 109.57426697 498.5654586 108.39569092 498.56323814 C91.23408457 498.51142251 74.38702215 498.10038926 57.42459106 495.25726891 C55.57462524 494.95127769 55.57462524 494.95127769 53.68728638 494.63910484 C19.71989893 488.85867502 -13.49588885 479.26235701 -44.57540894 464.25726891 C-45.26215698 463.92904137 -45.94890503 463.60081383 -46.65646362 463.26264 C-98.38111164 438.43329727 -98.38111164 438.43329727 -105.82540894 420.19476891 C-107.58249329 413.3128552 -107.7220689 406.67573506 -107.71585083 399.60976219 C-107.71882195 398.54896342 -107.72179307 397.48816465 -107.72485423 396.39522046 C-107.73351367 392.8470313 -107.73504711 389.29887599 -107.73654175 385.75067711 C-107.74117163 383.20444225 -107.74619652 380.65820808 -107.75158691 378.11197472 C-107.76469081 371.20118377 -107.77118802 364.29040392 -107.77559757 357.37960267 C-107.7783641 353.06431471 -107.78260199 348.74902898 -107.78710175 344.43374252 C-107.79928537 332.48295578 -107.80958918 320.5321708 -107.81297684 308.58137798 C-107.8131964 307.81751876 -107.81341597 307.05365954 -107.81364219 306.26665307 C-107.81386047 305.50100008 -107.81407874 304.73534709 -107.81430364 303.94649249 C-107.8147471 302.39505533 -107.81519366 300.84361817 -107.81564331 299.29218102 C-107.81586474 298.52261954 -107.81608617 297.75305807 -107.81631431 296.96017655 C-107.82026767 284.4732011 -107.83774208 271.98628381 -107.86100283 259.49933086 C-107.88469803 246.67570689 -107.89717771 233.85211215 -107.89834476 221.02846593 C-107.8992621 213.82960376 -107.90503013 206.63081758 -107.92316437 199.43197632 C-107.94014424 192.66780894 -107.94183192 185.90381074 -107.93302536 179.13961983 C-107.93225171 176.65311421 -107.93664053 174.166601 -107.94648361 171.68011475 C-107.95910373 168.29450988 -107.95338053 164.90942515 -107.94290161 161.52382469 C-107.95498622 160.03683058 -107.95498622 160.03683058 -107.96731496 158.51979619 C-107.96072511 157.61394944 -107.95413527 156.70810268 -107.94734573 155.77480602 C-107.94794282 154.99333889 -107.94853991 154.21187175 -107.94915509 153.4067238 C-107.48174839 150.71861692 -106.33383331 149.3025416 -104.57540894 147.25726891 C-99.86978467 147.34129791 -97.47061267 147.92768606 -94.13790894 151.32758141 C-92.93482587 152.6652916 -91.74810168 154.01783893 -90.57540894 155.38226891 C-89.26391472 156.84397831 -87.95004576 158.30355994 -86.63400269 159.76117516 C-85.63215942 160.88096764 -85.63215942 160.88096764 -84.6100769 162.02338219 C-81.38946239 165.55933404 -78.02764773 168.94667158 -74.63790894 172.31976891 C-74.00175659 172.95342369 -73.36560425 173.58707848 -72.71017456 174.23993492 C-69.17370419 177.73859457 -65.58706042 181.12367059 -61.78244019 184.33148766 C-59.20548238 186.58005437 -56.72650307 188.91986664 -54.23947144 191.26703453 C-48.468664 196.71280637 -42.64784688 201.96817897 -36.44259644 206.92133141 C-32.95382839 209.76367922 -29.58256522 212.72719952 -26.20040894 215.69476891 C-20.07708809 221.04043957 -13.80080797 226.09872159 -7.29269409 230.96967125 C-5.45774264 232.34549353 -3.631534 233.73242102 -1.80587769 235.12055016 C33.6109095 261.97286637 71.25719743 285.89793868 110.73709106 306.31976891 C111.33102661 306.62751244 111.92496216 306.93525597 112.53689575 307.25232506 C115.37542557 308.7190765 118.22252597 310.1638706 121.0852356 311.5829525 C123.36975085 312.72838353 125.63080651 313.92149952 127.86941528 315.15424156 C133.53008188 318.33223114 133.53008188 318.33223114 139.79299927 319.01337242 C142.07942466 318.07121527 143.90715608 316.93606238 145.92459106 315.50726891 C146.66886353 315.03788902 147.41313599 314.56850914 148.17996216 314.08490562 C150.62864613 312.52214205 153.02305419 310.89137251 155.42459106 309.25726891 C157.17451362 308.12550764 158.92718049 306.99797966 160.68240356 305.87445641 C176.43311313 295.69303472 191.27149593 284.54913509 205.42459106 272.25726891 C206.24185669 271.56375328 207.05912231 270.87023766 207.90115356 270.15570641 C208.61013794 269.54984703 209.31912231 268.94398766 210.04959106 268.31976891 C210.935177 267.56373375 210.935177 267.56373375 211.83865356 266.79242516 C213.60156126 265.08596524 214.97260508 263.23078558 216.42459106 261.25726891 C203.26903317 238.36310147 189.61730204 215.86658877 174.42459106 194.25726891 C173.96713501 193.60548668 173.50967896 192.95370445 173.0383606 192.28217125 C167.32185293 184.15804955 161.43756727 176.16474446 155.42459106 168.25726891 C155.02240356 167.72746422 154.62021606 167.19765953 154.20584106 166.65180016 C145.44216609 155.12209027 136.2513347 143.97209894 126.86160278 132.94867516 C125.43060105 131.26434284 124.00722072 129.57380611 122.58474731 127.88226891 C110.05743083 113.04667655 96.52205477 99.18604264 82.77883911 85.48114586 C80.46100269 83.16874167 78.14865803 80.85093992 75.83670044 78.53265953 C74.33637042 77.03298934 72.83573076 75.53362885 71.33474731 74.03461266 C70.31889305 73.01572205 70.31889305 73.01572205 69.28251648 71.97624779 C65.36297077 68.07566005 61.33816898 64.35276427 57.14865112 60.74321556 C54.93083289 58.83170467 52.77297118 56.85771448 50.61209106 54.88226891 C46.2968453 50.98802273 41.85367351 47.29072166 37.33474731 43.63617516 C34.75525981 41.52757396 32.2146276 39.38368425 29.68386841 37.21747398 C19.79180399 28.75735018 9.53184504 20.8890337 -1.17086792 13.47968102 C-5.46863839 10.47081 -5.46863839 10.47081 -6.57540894 8.25726891 C-6.76290894 5.25726891 -6.76290894 5.25726891 -6.57540894 2.25726891 C-4.10144481 -0.21669522 -3.40597412 0.0057033 0 0 Z " fill="#326FFE" transform="translate(154.57540893554688,81.74273109436035)"/>
<path d="M0 0 C1.45452371 -0.00967334 1.45452371 -0.00967334 2.93843174 -0.0195421 C4.01135943 -0.01644489 5.08428713 -0.01334769 6.18972778 -0.01015663 C7.32369208 -0.01468774 8.45765638 -0.01921886 9.62598324 -0.02388728 C13.4521223 -0.03661745 17.27812058 -0.03490534 21.10427856 -0.03325844 C23.83708742 -0.03814842 26.5698862 -0.04598571 29.3026886 -0.05361366 C35.9726931 -0.07025347 42.64266227 -0.07572465 49.31268579 -0.07683842 C54.73637573 -0.077788 60.16005399 -0.08189383 65.58374023 -0.08823967 C80.96044366 -0.10586444 96.33711914 -0.11507725 111.71383274 -0.11357872 C112.54344646 -0.11349881 113.37306019 -0.1134189 114.22781372 -0.11333656 C115.05844113 -0.1132548 115.88906855 -0.11317304 116.74486649 -0.1130888 C130.19164021 -0.11227676 143.63830168 -0.13139039 157.08504295 -0.1596133 C170.89165407 -0.18836259 184.6982105 -0.20215229 198.50485229 -0.20042574 C206.25620253 -0.19976228 214.00743528 -0.20523451 221.75875854 -0.22678185 C228.36254962 -0.24502116 234.96617004 -0.24931895 241.56997544 -0.235763 C244.93741509 -0.2292454 248.30426131 -0.23125671 251.67171288 -0.2464695 C255.32929468 -0.26192052 258.98602162 -0.2526131 262.64358521 -0.23720741 C263.69866713 -0.24749454 264.75374905 -0.25778167 265.84080315 -0.26838052 C276.1376407 -0.17277037 284.88390026 3.15109336 292.42459106 10.25726891 C295.08290206 13.26682193 297.45270504 16.43886025 299.79959106 19.69476891 C300.44879517 20.57930748 301.09799927 21.46384605 301.76687622 22.37518883 C307.21849383 29.85275454 312.47625691 37.43759875 317.42459106 45.25726891 C317.78681763 45.82622887 318.14904419 46.39518883 318.52224731 46.98139 C336.74515572 75.82616392 350.6671842 107.37424016 360.48709106 140.00726891 C360.69116577 140.67991783 360.89524048 141.35256676 361.10549927 142.04559898 C362.10917785 145.53517999 362.63942547 148.62587446 362.42459106 152.25726891 C361.90775757 152.45771812 361.39092407 152.65816734 360.85842896 152.86469078 C337.5249408 161.95385344 315.6086092 172.05941379 296.03892517 187.94717979 C294.57618589 189.13424435 293.10741729 190.31386984 291.63796997 191.49262047 C281.29999577 199.99568624 272.00506966 209.48674168 262.61209106 219.00726891 C260.14460197 221.50258046 257.67555956 223.99630613 255.20347595 226.48706627 C253.67902528 228.02356673 252.15725057 229.56272894 250.63874817 231.10510826 C246.63075463 235.1505921 242.51951612 238.98963945 238.20457458 242.70560265 C235.94535181 244.67503647 233.81698703 246.75169356 231.70584106 248.87836266 C230.91951294 249.66791344 230.13318481 250.45746422 229.32302856 251.27094078 C228.53154419 252.07080406 227.74005981 252.87066734 226.92459106 253.69476891 C225.69095825 254.9351693 225.69095825 254.9351693 224.43240356 256.20062828 C222.42746994 258.2172185 220.42492853 260.23612127 218.42459106 262.25726891 C215.56750061 259.58610459 213.56750547 257.08387719 211.71755981 253.64398766 C211.22119019 252.73737389 210.72482056 251.83076012 210.21340942 250.8966732 C209.42075684 249.43548058 209.42075684 249.43548058 208.61209106 247.94476891 C202.32178182 236.58473885 195.4207711 225.72961805 188.21170044 214.93500328 C186.51812063 212.39740992 184.83654281 209.85233576 183.15896606 207.30414391 C174.35109606 193.95597693 165.10505433 180.98774115 155.42459106 168.25726891 C155.02240356 167.72746422 154.62021606 167.19765953 154.20584106 166.65180016 C145.44216609 155.12209027 136.2513347 143.97209894 126.86160278 132.94867516 C125.43060105 131.26434284 124.00722072 129.57380611 122.58474731 127.88226891 C110.05743083 113.04667655 96.52205477 99.18604264 82.77883911 85.48114586 C80.46100269 83.16874167 78.14865803 80.85093992 75.83670044 78.53265953 C74.33637042 77.03298934 72.83573076 75.53362885 71.33474731 74.03461266 C70.65751114 73.35535225 69.98027496 72.67609184 69.28251648 71.97624779 C65.36297077 68.07566005 61.33816898 64.35276427 57.14865112 60.74321556 C54.93083289 58.83170467 52.77297118 56.85771448 50.61209106 54.88226891 C46.2968453 50.98802273 41.85367351 47.29072166 37.33474731 43.63617516 C34.75525981 41.52757396 32.2146276 39.38368425 29.68386841 37.21747398 C19.79180399 28.75735018 9.53184504 20.8890337 -1.17086792 13.47968102 C-5.46863839 10.47081 -5.46863839 10.47081 -6.57540894 8.25726891 C-6.76290894 5.25726891 -6.76290894 5.25726891 -6.57540894 2.25726891 C-4.10144481 -0.21669522 -3.40597412 0.0057033 0 0 Z " fill="#00D5B8" transform="translate(154.57540893554688,81.74273109436035)"/>
<path d="M0 0 C-1.7380203 3.71015526 -3.88131091 6.11318207 -6.75 9.0625 C-21.76891816 25.0690739 -32.90864287 43.72147916 -42.65649414 63.27856445 C-43.00442489 63.97553436 -43.35235563 64.67250427 -43.71082973 65.39059448 C-46.89706859 71.77988865 -50.05776887 78.18171141 -53.21559143 84.58508301 C-55.92705682 90.08182679 -58.65082742 95.57245855 -61.3758173 101.06250763 C-63.4337293 105.20979928 -65.486998 109.35926728 -67.53051758 113.51367188 C-69.53264589 117.58341243 -71.54665926 121.64706965 -73.56881523 125.70689392 C-74.3292919 127.23883682 -75.0855791 128.77286763 -75.83735847 130.30909729 C-82.90269179 144.73512123 -82.90269179 144.73512123 -88.47898865 150.4329834 C-90.13399948 152.1380525 -91.49242386 153.94484433 -92.875 155.875 C-96.57984617 160.89320433 -100.7484717 165.44280626 -105 170 C-105.72703125 170.804375 -106.4540625 171.60875 -107.203125 172.4375 C-130.00803232 196.63862614 -166.20262313 211.23345454 -199.14453125 212.22265625 C-258.06509479 213.32821104 -317.53975251 187.02411576 -370.4453125 163.15185547 C-374.28972942 161.41848782 -378.14481419 159.70925136 -382 158 C-382 157.34 -382 156.68 -382 156 C-380.94425781 155.44054687 -379.88851563 154.88109375 -378.80078125 154.3046875 C-355.4619492 141.74584242 -333.98049526 126.3719306 -314 109 C-312.948125 108.09894531 -312.948125 108.09894531 -311.875 107.1796875 C-301.747155 98.44442119 -292.09851708 89.23826028 -282.73242188 79.69555664 C-282.10271484 79.05739014 -281.47300781 78.41922363 -280.82421875 77.76171875 C-280.27854248 77.20444092 -279.73286621 76.64716309 -279.1706543 76.07299805 C-277.24527708 74.23424223 -275.27387233 72.49916908 -273.25756836 70.76196289 C-268.98662792 67.0457148 -265.013573 63.09055316 -261.0546875 59.046875 C-259.54978159 57.52444058 -258.04456315 56.00231505 -256.5390625 54.48046875 C-254.21266927 52.12332378 -251.88868546 49.76396091 -249.5703125 47.39892578 C-240.19866809 37.84936406 -230.80777535 28.90557241 -220 21 C-219.24251465 20.43619629 -218.4850293 19.87239258 -217.70458984 19.29150391 C-215.90626729 17.97412281 -214.09083899 16.694583 -212.25 15.4375 C-211.59644531 14.99116211 -210.94289063 14.54482422 -210.26953125 14.08496094 C-197.62725851 5.6069907 -184.1622748 -1.43590076 -170 -7 C-169.25057129 -7.29503418 -168.50114258 -7.59006836 -167.72900391 -7.89404297 C-154.44448395 -13.02962726 -141.00055818 -16.44580846 -127 -19 C-126.2997168 -19.13277344 -125.59943359 -19.26554688 -124.87792969 -19.40234375 C-84.002157 -26.81537232 -36.66168736 -19.16309386 0 0 Z " fill="#133C9A" transform="translate(674,245)"/>
<path d="M0 0 C0.33 0.66 0.66 1.32 1 2 C-1.76460013 8.1746322 -4.98404827 12.84878719 -11 16 C-9.32076975 12.19866558 -6.88537166 9.02917298 -4.375 5.75 C-3.95476563 5.19570313 -3.53453125 4.64140625 -3.1015625 4.0703125 C-2.07061281 2.71133337 -1.03570089 1.35536165 0 0 Z " fill="#2F6AF3" transform="translate(587,392)"/>
</svg>